<?xml version="1.0" encoding="utf-8" ?><svg xmlns="http://www.w3.org/2000/svg" xmlns:xlink="http://www.w3.org/1999/xlink" width="1254" height="1254" viewBox="0 0 1254 1254"><path fill="#00F57F" d="M436.646 635.786C434.728 634.276 429.959 627.181 428.505 624.995C387.713 563.674 380.163 489.042 405.367 419.9C428.315 357.655 474.97 307.025 535.135 279.075C592.873 252.313 657.153 248.02 717.158 270.116C757.42 284.916 792.606 310.929 818.559 345.083C823.314 351.408 830.317 361.665 833.6 368.758C841.164 381.772 852.177 408.359 855.879 422.959C864.802 445.372 869.77 482.219 867.192 506.508C865.096 550.246 850.499 588.946 826.409 625.146C820.5 634.76 809.213 647.867 801.319 655.956C767.554 690.89 724.447 715.367 677.146 726.464C618.473 740.159 556.765 730.101 505.478 698.482C490.995 689.58 463.371 667.996 452.679 654.63C445.9 647.744 442.416 643.755 436.646 635.786ZM513.057 580.087C516.575 585.453 519.502 589.206 524.215 593.601C524.978 594.314 529.375 598.308 529.828 598.913C536.616 604.021 542.573 608.33 549.994 612.533C583.045 631.027 622.123 635.523 658.51 625.02C697.851 613.923 731.642 586.113 751.471 550.532C770.979 516.311 775.842 475.663 764.955 437.806C758.345 421.845 750.805 411.077 738.75 398.561C714.472 374.307 681.493 360.784 647.176 361.013C587.043 360.85 535.146 397.619 507.286 449.513C486.325 495.145 488.233 536.581 513.057 580.087Z"/><defs><linearGradient id="gradient_0" gradientUnits="userSpaceOnUse" x1="621.24286" y1="465.04068" x2="719.987" y2="695.1709"><stop offset="0" stop-color="#00FFE1"/><stop offset="1" stop-color="#0084FF"/></linearGradient></defs><path fill="url(#gradient_0)" d="M833.6 368.758C841.164 381.772 852.177 408.359 855.879 422.959C864.802 445.372 869.77 482.219 867.192 506.508C865.096 550.246 850.499 588.946 826.409 625.146C820.5 634.76 809.213 647.867 801.319 655.956C767.554 690.89 724.447 715.367 677.146 726.464C618.473 740.159 556.765 730.101 505.478 698.482C490.995 689.58 463.371 667.996 452.679 654.63C445.9 647.744 442.416 643.755 436.646 635.786C439.669 637.164 442.455 641.839 445.879 642.091C460.647 643.179 479.454 627.624 490.228 621.292C497.874 616.85 505.788 612.885 513.925 609.422C522.534 605.709 523.226 605.097 532.494 606.297C531.257 603.685 530.08 601.768 529.828 598.913C536.616 604.021 542.573 608.33 549.994 612.533C583.045 631.027 622.123 635.523 658.51 625.02C697.851 613.923 731.642 586.113 751.471 550.532C770.979 516.311 775.842 475.663 764.955 437.806C765.209 434.601 763.192 429.848 762.049 426.773C769.748 427.067 771.525 425.283 777.572 421.12C794.31 409.584 808.566 394.778 827.416 386.707C836.139 382.973 831.757 373.659 833.6 368.758Z"/><defs><linearGradient id="gradient_1" gradientUnits="userSpaceOnUse" x1="624.04456" y1="742.24579" x2="680.70276" y2="566.60132"><stop offset="0" stop-color="#001C94"/><stop offset="1" stop-color="#0139C1"/></linearGradient></defs><path fill="url(#gradient_1)" d="M817.026 613.044C819.183 611.298 818.699 611.082 820.818 611.123C824.497 614.297 824.196 620.231 826.409 625.146C820.5 634.76 809.213 647.867 801.319 655.956C767.554 690.89 724.447 715.367 677.146 726.464C618.473 740.159 556.765 730.101 505.478 698.482C490.995 689.58 463.371 667.996 452.679 654.63C457.692 657.796 461.961 663.346 466.564 667.177C522.714 713.904 592.983 730.922 664.316 715.725C718.323 704.055 766.871 674.646 802.224 632.184C807.264 626.125 812.753 619.631 817.026 613.044Z"/><defs><linearGradient id="gradient_2" gradientUnits="userSpaceOnUse" x1="871.48468" y1="535.40692" x2="813.66412" y2="541.2641"><stop offset="0" stop-color="#0087FF"/><stop offset="1" stop-color="#014CBF"/></linearGradient></defs><path fill="url(#gradient_2)" d="M855.879 422.959C864.802 445.372 869.77 482.219 867.192 506.508C865.096 550.246 850.499 588.946 826.409 625.146C824.196 620.231 824.497 614.297 820.818 611.123C818.699 611.082 819.183 611.298 817.026 613.044C820.394 606.661 825.978 600.162 829.571 593.329C855.749 543.559 863.403 509.147 860.143 453.832C859.259 451.421 855.607 424.931 855.879 422.959Z"/><path fill="#008EFC" d="M855.879 422.959C864.802 445.372 869.77 482.219 867.192 506.508C866.944 498.829 864.571 457.059 860.143 453.832C859.259 451.421 855.607 424.931 855.879 422.959Z"/><defs><linearGradient id="gradient_3" gradientUnits="userSpaceOnUse" x1="597.03534" y1="349.08511" x2="624.32556" y2="434.86081"><stop offset="0" stop-color="#00776E"/><stop offset="1" stop-color="#019D7D"/></linearGradient></defs><path fill="url(#gradient_3)" d="M487.732 454.106C495.197 422.246 523.364 388.464 550.166 370.163C583.656 347.092 625.015 338.456 664.938 346.198C696.205 352.121 726.691 370.57 744.702 396.949C742.429 399.567 742.171 399.115 738.75 398.561C714.472 374.307 681.493 360.784 647.176 361.013C587.043 360.85 535.146 397.619 507.286 449.513C506.363 443.898 513.962 438.767 513.885 434.399C511.952 435.112 510.583 435.806 508.528 435.787C507.516 436.905 506.921 437.547 505.647 438.349L504.994 439.903C501.55 440.075 496.83 438.225 494.281 438.952C493.166 441.302 488.894 453.641 488.064 454.249L487.732 454.106Z"/><path fill="#02A37A" d="M487.732 454.106L488.064 454.249C488.894 453.641 493.166 441.302 494.281 438.952C496.83 438.225 501.55 440.075 504.994 439.903L505.647 438.349C506.921 437.547 507.516 436.905 508.528 435.787C510.583 435.806 511.952 435.112 513.885 434.399C513.962 438.767 506.363 443.898 507.286 449.513C486.325 495.145 488.233 536.581 513.057 580.087L512.122 581.483C498.379 562.676 493.686 553.575 485.945 531.899C481.228 507.799 477.902 477.287 487.732 454.106Z"/><path fill="#035C6E" d="M744.702 396.949C751.406 407.152 756.699 415.698 762.049 426.773C763.192 429.848 765.209 434.601 764.955 437.806C758.345 421.845 750.805 411.077 738.75 398.561C742.171 399.115 742.429 399.567 744.702 396.949Z"/><path fill="#C7FDE4" d="M512.122 581.483L512.178 582.342C504.862 578.614 484.697 540.84 485.945 531.899C493.686 553.575 498.379 562.676 512.122 581.483Z"/><defs><linearGradient id="gradient_4" gradientUnits="userSpaceOnUse" x1="581.85126" y1="831.07672" x2="612.31677" y2="599.46027"><stop offset="0" stop-color="#003ED9"/><stop offset="1" stop-color="#007FFF"/></linearGradient></defs><path fill="url(#gradient_4)" d="M271.535 657.454C266.84 631.597 273.261 603.613 284.293 580.147C266.403 680.268 368.417 747.414 453.501 763.92C602.176 792.764 783.023 738.586 891.663 634.69C899.854 627.028 906.474 618.804 914.108 611.361C944.585 606.541 974.87 600.579 1004.9 593.486C994 613.627 981.142 632.645 966.512 650.263C961.739 656.78 954.924 664.947 948.807 670.259C939.193 680.966 915.09 704.599 903.292 712.04C901.625 713.661 895.968 718.128 894.009 719.141C869.033 739.793 821.747 767.348 792.247 780.515C681.22 834.152 539.769 852.362 422.143 810.875C412.489 807.469 367.991 788.921 363.489 782.885C359.285 780.977 348.419 773.226 344.483 770.194C316.57 748.693 295.684 725.737 281.463 693.123C276.122 681.977 273.136 669.681 271.535 657.454Z"/><defs><linearGradient id="gradient_5" gradientUnits="userSpaceOnUse" x1="917.02686" y1="655.92377" x2="983.05963" y2="579.10986"><stop offset="0" stop-color="#0094FF"/><stop offset="1" stop-color="#00BBFD"/></linearGradient></defs><path fill="url(#gradient_5)" d="M914.108 611.361C944.585 606.541 974.87 600.579 1004.9 593.486C994 613.627 981.142 632.645 966.512 650.263C961.739 656.78 954.924 664.947 948.807 670.259C949.19 668.176 949.306 668.254 948.743 666.254L942.908 671.909C941.357 671.509 939.859 671.404 938.261 671.214C927.7 662.906 919.777 654.553 909.776 645.834C904.981 641.654 895.088 639.048 891.663 634.69C899.854 627.028 906.474 618.804 914.108 611.361Z"/><path fill="#0182E9" d="M948.743 666.254C950.965 662.901 962.462 651.912 965.959 648.129C966.143 648.84 966.327 649.552 966.512 650.263C961.739 656.78 954.924 664.947 948.807 670.259C949.19 668.176 949.306 668.254 948.743 666.254Z"/><path fill="#0027A7" d="M363.489 782.885C363.04 779.665 347.001 772.017 343.77 767.233C345.759 767.555 348.787 769.829 350.693 771.017C366.6 783.295 411.369 802.756 431.041 807.916C436.909 807.542 458.106 814.361 466.702 815.907C499.528 821.813 546.265 828.526 579.432 825.851C585.358 824.518 605.396 822.959 610.681 825.397C614.851 825.812 631.735 823.09 636.581 822.339C692.114 813.741 741.9 796.467 793.365 774.733C791.882 777.941 791.638 777.572 792.247 780.515C681.22 834.152 539.769 852.362 422.143 810.875C412.489 807.469 367.991 788.921 363.489 782.885Z"/><path fill="#0182E9" d="M431.041 807.916C436.909 807.542 458.106 814.361 466.702 815.907C499.528 821.813 546.265 828.526 579.432 825.851L577.812 827.467C521.333 827.188 486.617 824.173 431.041 807.916Z"/><path fill="#0353DA" d="M579.432 825.851C585.358 824.518 605.396 822.959 610.681 825.397C601.94 826.44 586.571 827.649 577.812 827.467L579.432 825.851Z"/><path fill="#0353DA" d="M793.365 774.733C803.265 769.502 813.365 764.833 823.321 759.746C832.578 755.015 841.847 749.356 850.778 743.987C859.84 738.515 868.832 732.93 877.753 727.231C881.721 724.652 885.584 721.461 889.794 719.231C892.053 718.034 892.102 718.413 894.009 719.141C869.033 739.793 821.747 767.348 792.247 780.515C791.638 777.572 791.882 777.941 793.365 774.733Z"/><path fill="#0353DA" d="M281.463 693.123C283.832 695.168 293.143 711.99 295.758 716.04C301.172 724.603 307.423 732.606 314.42 739.932C325.226 750.99 338.667 761.709 351.484 770.402L350.693 771.017C348.787 769.829 345.759 767.555 343.77 767.233C347.001 772.017 363.04 779.665 363.489 782.885C359.285 780.977 348.419 773.226 344.483 770.194C316.57 748.693 295.684 725.737 281.463 693.123Z"/><path fill="#0353DA" d="M942.908 671.909L948.743 666.254C949.306 668.254 949.19 668.176 948.807 670.259C939.193 680.966 915.09 704.599 903.292 712.04C903.286 711.832 903.258 711.624 903.274 711.417C903.685 706.116 936.914 678.079 942.908 671.909Z"/><path fill="#0AB0FD" d="M271.535 657.454L272.137 656.009C272.887 657.566 277.017 673.587 278.298 677.243C286.076 699.439 298.718 721.483 315.256 738.314L314.42 739.932C307.423 732.606 301.172 724.603 295.758 716.04C293.143 711.99 283.832 695.168 281.463 693.123C276.122 681.977 273.136 669.681 271.535 657.454Z"/><path fill="#008EFC" d="M314.42 739.932L315.256 738.314C328.523 751.738 344.369 762.732 359.978 773.244C361.403 774.205 368.18 778.512 368.404 779.64L369.409 780.197C363.89 778.517 356.535 773.602 351.484 770.402C338.667 761.709 325.226 750.99 314.42 739.932Z"/><defs><linearGradient id="gradient_6" gradientUnits="userSpaceOnUse" x1="577.67316" y1="238.433" x2="942.36816" y2="159.32433"><stop offset="0" stop-color="#0099FE"/><stop offset="1" stop-color="#00F6FA"/></linearGradient></defs><path fill="url(#gradient_6)" d="M573.253 170.402C579.672 167.145 587.147 164.507 593.918 161.855C705.479 118.16 851.586 108.145 941.263 202.002C947.822 208.866 954.812 218.18 959.248 226.62C961.425 231.264 962.576 234.487 964.25 239.37C942.521 239.758 920.116 246.126 902.217 258.758C895.367 263.592 886.804 271.663 880.653 277.556C880.131 278.056 879.877 277.819 879.391 277.531C882.589 270.811 882.81 260.578 884.828 253.021C831.939 172.979 717.52 164.777 632.062 181.231C611.236 185.241 591.527 190.785 571.349 197.092C565.956 193.024 563.109 179.856 569.311 175.457C571.43 173.954 572.474 172.999 573.253 170.402Z"/><path fill="#0353DA" d="M884.828 253.021C906.92 231.296 928.485 223.876 959.248 226.62C961.425 231.264 962.576 234.487 964.25 239.37C942.521 239.758 920.116 246.126 902.217 258.758C895.367 263.592 886.804 271.663 880.653 277.556C880.131 278.056 879.877 277.819 879.391 277.531C882.589 270.811 882.81 260.578 884.828 253.021Z"/><path fill="#00144C" d="M317.238 881.976C335.503 880.073 349.971 888.426 361.683 901.573C361.78 896.382 362.299 890.606 362.656 885.381C375.545 885.07 389.931 885.389 402.93 885.414L394.959 972.173C393.423 988.584 391.128 1008.15 390.505 1024.4L351.309 1024.46C351.925 1019.19 352.456 1013.92 352.905 1008.64L348.399 1012.95C338.803 1021.26 329.104 1025.93 316.404 1027.3C278.768 1031.36 248.734 1007.58 245.188 969.27C243.259 946.957 250.331 924.798 264.83 907.728C278.947 890.992 295.797 883.835 317.238 881.976ZM323.013 992.4C334.963 990.261 343.172 986.563 350.351 976.28C357.05 966.595 359.61 954.638 357.465 943.059C353.899 924.265 339.509 915.09 320.957 916.765C271.281 926.437 276.347 996.144 323.013 992.4Z"/><path fill="#00144C" d="M106.063 837.049L243.129 837.057C242.256 849.171 241.001 861.445 239.976 873.58L145.25 873.633C143.88 886.251 143.065 899.031 141.617 911.667C169.737 911.088 199.969 911.681 228.265 911.699C227.474 923.645 225.987 935.655 225.246 947.725L138.232 947.673C136.836 961.013 135.558 974.364 134.398 987.726L232.132 987.73C231.467 999.799 230.13 1012.45 228.904 1024.5C182.627 1025.03 135.095 1024.46 88.712 1024.45C90.3772 999.469 93.214 974.343 95.6457 949.397C99.3062 911.966 102.779 874.516 106.063 837.049Z"/><defs><linearGradient id="gradient_7" gradientUnits="userSpaceOnUse" x1="1134.8785" y1="1025.6548" x2="1116.21" y2="885.15137"><stop offset="0" stop-color="#0051FF"/><stop offset="1" stop-color="#008FFF"/></linearGradient></defs><path fill="url(#gradient_7)" d="M1115.61 884.299C1134.32 880.932 1146.44 880.776 1163.87 890.156C1194.37 907.806 1197.23 936.101 1193.84 968.171C1160.51 968.499 1127.18 968.535 1093.85 968.279C1102.57 1003.55 1138.04 1001.96 1160.8 980.864C1168.56 987.947 1177.05 994.228 1184.84 1001.47C1173.61 1012.79 1161.44 1021.22 1145.81 1025.09C1126.29 1029.78 1104.43 1028.73 1086.93 1018.3C1051.51 997.18 1048.46 950.443 1068.92 917.646C1080.64 898.86 1094.27 889.568 1115.61 884.299ZM1100.58 931.197C1099.49 933.192 1098.36 934.933 1097.96 937.155L1097.09 937.531C1096.63 939.146 1096.51 939.934 1095.69 941.397L1095.6 942.968C1099.13 945.252 1129.29 943.28 1136.11 943.33C1140.67 943.363 1153.99 943.722 1158.21 943.22L1159.33 942.491C1158.92 941.454 1159.22 941.808 1158.64 941.292C1158.42 939.892 1158.21 938.488 1158.02 937.083L1155.42 931.126C1145.41 913.264 1129.07 910.226 1111.54 919.971C1108.06 921.903 1102.43 927.48 1100.58 931.197Z"/><path fill="#0AB0FD" d="M1115.61 884.299C1134.32 880.932 1146.44 880.776 1163.87 890.156L1163.32 891.882C1159.7 893.253 1150.02 887.191 1146.04 886.625C1137.29 885.381 1128.31 886.292 1119.54 886.603C1117.19 886.686 1116.8 885.731 1115.61 884.299Z"/><defs><linearGradient id="gradient_8" gradientUnits="userSpaceOnUse" x1="1128.359" y1="935.82812" x2="1127.5841" y2="915.9234"><stop offset="0" stop-color="#F9F8F7" stop-opacity="0.42352942"/><stop offset="1" stop-color="#DADADD" stop-opacity="0.6156863"/></linearGradient></defs><path fill="url(#gradient_8)" d="M1100.58 931.197C1102.43 927.48 1108.06 921.903 1111.54 919.971C1129.07 910.226 1145.41 913.264 1155.42 931.126C1154.75 933.035 1153.4 936.076 1151.53 936.486C1140.49 938.906 1116.02 936.574 1105.91 937.869C1102.56 936.188 1101.89 934.728 1100.58 931.197Z"/><path fill="#FEFEFE" fill-opacity="0.30588236" d="M1155.42 931.126L1158.02 937.083C1158.21 938.488 1158.42 939.892 1158.64 941.292C1139.76 941.394 1114.04 940.235 1095.69 941.397C1096.51 939.934 1096.63 939.146 1097.09 937.531L1097.96 937.155C1098.84 937.96 1099.24 938.422 1099.83 939.463C1111.19 940.265 1129.6 939.626 1140.97 939.192C1136.26 937.347 1111.02 938.915 1105.91 937.869C1116.02 936.574 1140.49 938.906 1151.53 936.486C1153.4 936.076 1154.75 933.035 1155.42 931.126Z"/><path fill="#0AB0FD" fill-opacity="0.98823529" d="M1095.69 941.397C1114.04 940.235 1139.76 941.394 1158.64 941.292C1159.22 941.808 1158.92 941.454 1159.33 942.491L1158.21 943.22C1153.99 943.722 1140.67 943.363 1136.11 943.33C1129.29 943.28 1099.13 945.252 1095.6 942.968L1095.69 941.397Z"/><path fill="#0027A7" d="M1097.09 937.531C1097.81 931.632 1103.27 924.741 1107.86 921.01C1115.61 914.706 1125.62 911.879 1135.52 913.194C1147.13 914.663 1159.87 924.369 1158.02 937.083L1155.42 931.126C1145.41 913.264 1129.07 910.226 1111.54 919.971C1108.06 921.903 1102.43 927.48 1100.58 931.197C1099.49 933.192 1098.36 934.933 1097.96 937.155L1097.09 937.531Z"/><path fill="#FEFEFE" fill-opacity="0.33725491" d="M1100.58 931.197C1101.89 934.728 1102.56 936.188 1105.91 937.869C1111.02 938.915 1136.26 937.347 1140.97 939.192C1129.6 939.626 1111.19 940.265 1099.83 939.463C1099.24 938.422 1098.84 937.96 1097.96 937.155C1098.36 934.933 1099.49 933.192 1100.58 931.197Z"/><path fill="#00144C" d="M647.198 885.376L689.546 885.414C685.375 896.437 677.869 911.866 672.889 922.905L641.063 993.433L627.674 1023.25C619.463 1041.51 611.477 1062.03 593.473 1072.57C572.865 1084.64 553.89 1082.06 532.101 1076.72C535.305 1066.24 539.89 1054.32 543.816 1044.04C566.878 1050.07 573.771 1046.35 584.621 1025.36C568.439 979.011 550.625 932.222 535.399 885.666C548.059 885.013 565.234 885.456 578.237 885.43C588.37 916.254 598.252 947.16 607.882 978.145C611.963 967.26 618.009 953.916 622.638 942.992L647.198 885.376Z"/><defs><linearGradient id="gradient_9" gradientUnits="userSpaceOnUse" x1="626.58331" y1="143.90533" x2="539.07062" y2="478.59518"><stop offset="0" stop-color="#003DC5"/><stop offset="1" stop-color="#006DFF" stop-opacity="0.98823529"/></linearGradient></defs><path fill="url(#gradient_9)" d="M571.349 197.092C591.527 190.785 611.236 185.241 632.062 181.231C717.52 164.777 831.939 172.979 884.828 253.021C882.81 260.578 882.589 270.811 879.391 277.531C872.14 267.619 866.643 260.304 857.851 251.48C828.842 222.368 787.725 206.728 747.463 200.91C619.338 182.396 475.633 245.668 374.9 319.749C350.523 337.675 327.146 356.924 304.875 377.409C291.374 389.908 279.087 402.751 265.966 415.042C270.856 406.683 283.864 392.001 290.365 384.604C314.865 356.375 341.005 329.612 368.649 304.454C370.691 302.597 380.809 293.369 382.526 292.431C385.8 292.213 390.697 286.542 393.561 284.508C403.546 277.418 415.756 264.445 426.204 258.903C426.476 263.217 429.631 261.727 430.557 265.687C426.558 268.321 400.748 285.546 398.803 287.937L399.248 288.156C413.605 279.127 427.895 268.077 442.883 258.638C483.133 233.138 526.253 212.479 571.349 197.092Z"/><defs><linearGradient id="gradient_10" gradientUnits="userSpaceOnUse" x1="962.24463" y1="882.64374" x2="981.47009" y2="996.74249"><stop offset="0" stop-color="#00AFFA"/><stop offset="1" stop-color="#0061FF"/></linearGradient></defs><path fill="url(#gradient_10)" d="M955.758 902.544C961.237 896.466 967.097 890.561 974.762 887.252C1006.38 873.603 1044.17 888.099 1044.67 926.195C1044.94 946.819 1042.59 967.21 1040.64 987.754C1039.48 999.966 1038.47 1012.19 1037.61 1024.43L998.536 1024.51C998.537 1015.35 1000.84 991.934 1002.32 982.686C1003.38 967.099 1009.9 934.884 999.966 924.354C985.548 909.063 956.4 919.095 953.274 940.959C950.075 963.333 949.537 984.163 947.052 1005.76C946.796 1011.6 946.323 1018.62 945.709 1024.45L906.627 1024.49C906.763 1022.15 907.394 1009.39 907.856 1008.02C907.869 1004.13 908.266 999.765 908.587 995.876C911.596 959.413 915.627 923.121 918.224 886.617L918.887 885.554C922.988 884.98 931.107 885.308 935.538 885.359C942.609 885.382 950.116 885.283 957.149 885.456C956.711 890.992 956.359 897.067 955.758 902.544Z"/><defs><linearGradient id="gradient_11" gradientUnits="userSpaceOnUse" x1="1022.3918" y1="1024.8323" x2="1016.6055" y2="986.1275"><stop offset="0" stop-color="#0049FF"/><stop offset="1" stop-color="#0064FF"/></linearGradient></defs><path fill="url(#gradient_11)" d="M1002.32 982.686C1002.55 986.512 1002.06 987.949 1005.42 990.163C1010.97 989.36 1029.33 987.097 1032.6 984.204C1035.65 984.98 1039.42 987.959 1040.64 987.754C1039.48 999.966 1038.47 1012.19 1037.61 1024.43L998.536 1024.51C998.537 1015.35 1000.84 991.934 1002.32 982.686Z"/><path fill="#0353DA" d="M907.856 1008.02L908.472 1008.58L909.024 1006.4C917.71 1006.3 929.948 1001.79 938.862 1000.59C941.467 1000.23 943.662 1002.53 946.348 1001.4C946.183 1003.14 946.41 1003.57 946.891 1005.22L947.052 1005.76C946.796 1011.6 946.323 1018.62 945.709 1024.45L906.627 1024.49C906.763 1022.15 907.394 1009.39 907.856 1008.02Z"/><path fill="#01DEE2" d="M918.224 886.617L918.887 885.554C922.988 884.98 931.107 885.308 935.538 885.359C937.281 887.207 937.233 886.631 937.759 888.786C935.247 892.923 925.092 892.531 921.268 890.405C920.219 889.821 918.889 887.644 918.224 886.617Z"/><path fill="#01DEE2" d="M996.266 282.618C1022.09 296.76 1037.49 318.82 1039.35 348.594C1041.36 365.679 1033.86 387.647 1023.03 400.865C1012.59 413.608 1002.47 420.533 987.39 426.47C950.059 438.818 914.529 424.862 893.643 392.096C889.734 385.759 887.575 379.344 885.455 372.279C895.607 372.229 895.549 375.589 902.159 382.284C906.243 387.744 910.898 391.813 915.956 396.372C919.168 397.366 923.645 398.185 927.042 398.905C922.022 395.244 916.161 393.263 913.902 388.154L925.052 381.228C919.701 379.927 916.356 380.136 911.007 380.528C920.793 371.292 933.501 363.923 942.932 353.977C952.409 343.98 958.587 332.476 968.553 322.832C972.982 318.546 984.735 312.876 987.257 308.578C990.936 302.309 993.476 290.207 996.266 282.618Z"/><path fill="#0182E9" d="M1039.35 348.594C1041.36 365.679 1033.86 387.647 1023.03 400.865C1012.59 413.608 1002.47 420.533 987.39 426.47C950.059 438.818 914.529 424.862 893.643 392.096C889.734 385.759 887.575 379.344 885.455 372.279C895.607 372.229 895.549 375.589 902.159 382.284C906.243 387.744 910.898 391.813 915.956 396.372C919.168 397.366 923.645 398.185 927.042 398.905C922.022 395.244 916.161 393.263 913.902 388.154L925.052 381.228C938.831 382.939 954.07 378.672 967.853 376.168C984.72 380.193 989.764 380.313 1006.82 380.437C1007.17 381.827 1007.11 381.097 1006.39 382.729C1015.82 379.437 1024.32 369.126 1026.48 359.424C1027.19 356.257 1026.32 353.288 1028.13 350.528C1033.38 348.754 1034.93 349.741 1039.35 348.594Z"/><path fill="#0353DA" d="M885.455 372.279C895.607 372.229 895.549 375.589 902.159 382.284C906.243 387.744 910.898 391.813 915.956 396.372C919.168 397.366 923.645 398.185 927.042 398.905C922.022 395.244 916.161 393.263 913.902 388.154C918.149 390.162 924.791 393.301 928.428 395.788C943.157 405.86 954.277 414.567 973.22 412.827C982.254 411.997 988.22 408.96 998.407 408.401L988.306 412.363C987.789 414.093 988.017 414.121 988.633 415.89L989.478 416.684C993.031 416.338 993.301 413.743 996.734 413.137L997.387 414.085C992.011 418.148 988.282 419.343 987.39 426.47C950.059 438.818 914.529 424.862 893.643 392.096C889.734 385.759 887.575 379.344 885.455 372.279Z"/><path fill="#02726F" d="M885.455 372.279C895.607 372.229 895.549 375.589 902.159 382.284C906.243 387.744 910.898 391.813 915.956 396.372C915.082 397.795 915.067 397.822 913.874 398.988C908.225 398.176 902.942 385.92 893.643 392.096C889.734 385.759 887.575 379.344 885.455 372.279Z"/><path fill="#008EFC" d="M1039.35 348.594C1041.36 365.679 1033.86 387.647 1023.03 400.865C1012.59 413.608 1002.47 420.533 987.39 426.47C988.282 419.343 992.011 418.148 997.387 414.085L997.942 414.136C1002.06 412.715 1016.6 398.51 1016.91 393.65L1016.07 392.721C1013.61 392.48 1011.33 393.98 1009.02 395.109L1002.13 392.533C999.964 393.292 995.275 395.588 993.4 393.977C994.63 392.36 997.762 391.715 999.853 391.037C1001.86 386.809 1002.25 384.836 1006.39 382.729C1015.82 379.437 1024.32 369.126 1026.48 359.424C1027.19 356.257 1026.32 353.288 1028.13 350.528C1033.38 348.754 1034.93 349.741 1039.35 348.594Z"/><path fill="#0AB0FD" d="M967.853 376.168C977.427 374.033 989.602 372.733 999.278 374.305C1021.07 377.844 1017.52 354.662 1027.41 345.762L1027.89 346.245C1027.77 347.817 1027.57 349.003 1028.13 350.528C1026.32 353.288 1027.19 356.257 1026.48 359.424C1024.32 369.126 1015.82 379.437 1006.39 382.729C1007.11 381.097 1007.17 381.827 1006.82 380.437C989.764 380.313 984.72 380.193 967.853 376.168Z"/><path fill="#FEFEFE" d="M1005.56 301.157C1015.33 301.462 1023.08 308.925 1019.71 319.049C1008.03 319.438 1003.4 312.216 1005.56 301.157Z"/><path fill="#00144C" d="M470.524 881.969C490.922 879.226 514.894 888.637 530.188 901.831C524.094 909.362 515.512 918.554 509.003 926.032C496.53 917.242 476.033 906.953 460.734 916.545C442.188 928.173 473.309 936.98 481.555 939.085C494.746 942.453 510.025 947.408 519.726 957.605C526.765 964.998 528.827 972.987 528.547 982.919C527.594 1016.72 493.117 1029.04 464.068 1027.58C440.869 1027.44 422.516 1020.43 404.644 1005.85C411.122 997.61 419.863 987.981 426.737 979.674C437.538 988.034 446.186 993.778 460.069 996C467.376 997.17 478.153 997.483 484.24 992.884C486.429 991.23 490.563 986.863 490.039 984.478C487.422 972.563 457.294 969.053 447.116 964.478C440.41 962.084 435.017 959.313 429.328 954.962C412.637 942.196 413.371 916.477 426.021 901.114C436.736 888.101 454.095 883.474 470.524 881.969Z"/><defs><linearGradient id="gradient_12" gradientUnits="userSpaceOnUse" x1="799.5708" y1="952.23981" x2="815.45404" y2="1024.2089"><stop offset="0" stop-color="#00A5E0"/><stop offset="1" stop-color="#0058FF"/></linearGradient></defs><path fill="url(#gradient_12)" d="M738.563 933.253C739.58 947.497 741.69 955.944 749.284 968.592L749.779 969.066C757.641 976.741 758.275 977.708 768.004 983.707C794.784 994.768 817.905 990.965 839.19 971.132C845.057 964.572 847.26 961.524 851.387 953.768L852.389 955.929C858.587 959.267 880.348 949.458 887.023 946.945C888.168 946.514 891.62 947.061 891.727 947.005C893.928 945.853 894.124 944.161 896.692 944.11C891.43 970.787 875.898 994.329 853.443 1009.66C810.687 1038.9 743.02 1033.12 712.864 988.582C710.815 985.519 708.966 982.325 707.329 979.023C701.192 969.58 698.106 951.401 697.026 940.48C697.474 939.982 697.923 939.483 698.372 938.985C707.069 936.978 721.295 934.662 729.531 933.709C732.887 933.845 735.278 934.126 738.563 933.253Z"/><defs><linearGradient id="gradient_13" gradientUnits="userSpaceOnUse" x1="714.48425" y1="933.0282" x2="726.64929" y2="971.40497"><stop offset="0" stop-color="#00D7A4"/><stop offset="1" stop-color="#00A7D5"/></linearGradient></defs><path fill="url(#gradient_13)" d="M738.563 933.253C739.58 947.497 741.69 955.944 749.284 968.592C744.366 966.061 749.292 967.108 745.064 965.029C733.578 969.798 719.976 973.353 708.114 977.802C707.852 978.209 707.591 978.616 707.329 979.023C701.192 969.58 698.106 951.401 697.026 940.48C697.474 939.982 697.923 939.483 698.372 938.985C707.069 936.978 721.295 934.662 729.531 933.709C732.887 933.845 735.278 934.126 738.563 933.253Z"/><path fill="#0AB0FD" d="M768.004 983.707C794.784 994.768 817.905 990.965 839.19 971.132C839.148 973.674 839.51 975.013 837.4 976.929C828.947 984.604 816.491 990.498 805.061 991.572C795.631 992.457 776.151 990.993 767.733 986.552L767.779 985.933L770.297 986.097L767.981 984.709L768.004 983.707Z"/><defs><linearGradient id="gradient_14" gradientUnits="userSpaceOnUse" x1="771.42657" y1="836.586" x2="793.69281" y2="915.58624"><stop offset="0" stop-color="#00FF5A" stop-opacity="0.98823529"/><stop offset="1" stop-color="#00E0A8"/></linearGradient></defs><path fill="url(#gradient_14)" d="M697.026 940.48C696.562 931.506 697.281 922.51 699.164 913.723C705.172 886.556 721.755 862.901 745.245 847.988C769.776 832.427 799.433 827.111 827.842 833.182C851.847 838.328 872.757 852.946 885.834 873.723C879.015 877.955 864.716 880.765 856.89 883.864C853.061 885.38 848.293 884.894 845.737 888.562C834.804 875.974 824.835 869.109 807.663 867.871C790.425 866.717 773.433 872.451 760.418 883.814C749.379 893.521 741.176 908.55 739.579 923.198C734.63 928.683 739.256 932.337 729.531 933.709C721.295 934.662 707.069 936.978 698.372 938.985C697.923 939.483 697.474 939.982 697.026 940.48Z"/><path fill="#00F57F" fill-opacity="0.98823529" d="M941.028 277.054C959.422 272.209 979.363 273.506 996.266 282.618C993.476 290.207 990.936 302.309 987.257 308.578C984.735 312.876 972.982 318.546 968.553 322.832C958.587 332.476 952.409 343.98 942.932 353.977C933.501 363.923 920.793 371.292 911.007 380.528C907.676 381.98 903.321 373.525 899.819 370.793C893.677 363.076 893.908 351.678 887.024 346.109C886.297 345.521 884.493 346.356 883.285 346.705C885.42 326.421 891.326 313.06 905.286 298.074L906.861 300.054L905.747 302.393L904.949 303.07C903.942 305.709 903.525 305.504 904.014 307.789C911.444 311.904 933.611 287.595 939.591 282.711C941.469 281.177 941.095 279.133 941.028 277.054Z"/><defs><linearGradient id="gradient_15" gradientUnits="userSpaceOnUse" x1="859.20758" y1="883.53497" x2="881.13483" y2="950.04541"><stop offset="0" stop-color="#00E6B7"/><stop offset="1" stop-color="#0093E7"/></linearGradient></defs><path fill="url(#gradient_15)" d="M845.737 888.562C848.293 884.894 853.061 885.38 856.89 883.864C864.716 880.765 879.015 877.955 885.834 873.723C897.427 893.492 902.703 920.684 897.034 942.881C896.93 943.293 896.816 943.703 896.692 944.11C894.124 944.161 893.928 945.853 891.727 947.005C891.62 947.061 888.168 946.514 887.023 946.945C880.348 949.458 858.587 959.267 852.389 955.929L851.387 953.768C853.649 948.397 855.358 942.808 856.486 937.09C860.135 918.541 856.185 904.006 845.737 888.562Z"/><defs><linearGradient id="gradient_16" gradientUnits="userSpaceOnUse" x1="423.26309" y1="224.77293" x2="575.22809" y2="212.12097"><stop offset="0" stop-color="#0074FF"/><stop offset="1" stop-color="#009BFF"/></linearGradient></defs><path fill="url(#gradient_16)" d="M382.526 292.431C390.696 284.497 406.218 272.187 415.243 265.262C462.517 228.981 518.02 192.919 573.253 170.402C572.474 172.999 571.43 173.954 569.311 175.457C563.109 179.856 565.956 193.024 571.349 197.092C526.253 212.479 483.133 233.138 442.883 258.638C427.895 268.077 413.605 279.127 399.248 288.156L398.803 287.937C400.748 285.546 426.558 268.321 430.557 265.687C429.631 261.727 426.476 263.217 426.204 258.903C415.756 264.445 403.546 277.418 393.561 284.508C390.697 286.542 385.8 292.213 382.526 292.431Z"/><path fill="#00F57F" d="M941.028 277.054C941.095 279.133 941.469 281.177 939.591 282.711C933.611 287.595 911.444 311.904 904.014 307.789C903.525 305.504 903.942 305.709 904.949 303.07L905.747 302.393L906.861 300.054L905.286 298.074C915.373 287.392 926.982 280.907 941.028 277.054Z"/><path fill="#C7FDE4" d="M930.007 282.157C926.501 287.369 913.776 303.794 907.193 303.539L905.747 302.393L906.861 300.054C914.47 291.116 919.399 287.614 930.007 282.157Z"/><path fill="#02A37A" d="M883.285 346.705C884.493 346.356 886.297 345.521 887.024 346.109C893.908 351.678 893.677 363.076 899.819 370.793C900.011 374.553 901.231 378.582 902.159 382.284C895.549 375.589 895.607 372.229 885.455 372.279C883.347 363.102 882.645 355.995 883.285 346.705Z"/><path fill="#00ABAA" d="M899.819 370.793C903.321 373.525 907.676 381.98 911.007 380.528C916.356 380.136 919.701 379.927 925.052 381.228L913.902 388.154C916.161 393.263 922.022 395.244 927.042 398.905C923.645 398.185 919.168 397.366 915.956 396.372C910.898 391.813 906.243 387.744 902.159 382.284C901.231 378.582 900.011 374.553 899.819 370.793Z"/><path fill="#00F57F" d="M729.531 933.709C739.256 932.337 734.63 928.683 739.579 923.198C739.115 926.766 738.749 929.649 738.563 933.253C735.278 934.126 732.887 933.845 729.531 933.709Z"/></svg>