<?xml version="1.0" encoding="utf-8" ?><svg xmlns="http://www.w3.org/2000/svg" xmlns:xlink="http://www.w3.org/1999/xlink" width="699" height="256" viewBox="0 0 699 256"><defs><linearGradient id="gradient_0" gradientUnits="userSpaceOnUse" x1="698.93329" y1="4.3670616" x2="162.29677" y2="297.57111"><stop offset="0" stop-color="#261926"/><stop offset="1" stop-color="#665068"/></linearGradient></defs><path fill="url(#gradient_0)" d="M0 0L45.1236 0L51.3804 0L54.7847 0L340.271 0L344.683 0L348.861 0L353.624 0L699 0L699 18.1831L699 21.3477L699 54.0465L699 256L697.747 256L133.226 256L0 256L0 217.41L0 215.529L0 90.8888L0 0Z"/><defs><linearGradient id="gradient_1" gradientUnits="userSpaceOnUse" x1="285.79086" y1="-59.323589" x2="-12.438995" y2="198.4371"><stop offset="0" stop-color="#4B3A4C"/><stop offset="1" stop-color="#6B546E"/></linearGradient></defs><path fill="url(#gradient_1)" d="M0 0L45.1236 0L51.3804 0L54.7847 0L340.271 0C332.156 13.7971 329.483 21.2591 323.497 35.3378C319.56 45.6906 315.886 56.1411 312.477 66.6792C305.564 58.4185 297.524 59.2771 289.529 65.7134C285.289 68.8645 283.578 73.7718 280.488 77.6646C278.762 79.8396 274.091 82.9086 271.715 84.5399C260.441 92.2823 247.877 98.9291 237.331 85.6626C238.795 82.9419 252.03 58.5628 241.006 59.3117C237.101 59.577 230.735 70.4745 228.219 74.4416C225.791 78.706 223.611 83.1068 221.69 87.6222C221.611 87.6409 221.532 87.6576 221.454 87.6785C216.608 88.9754 209.35 103.909 205.406 107.184C204.462 107.967 203.066 108.543 201.884 107.948C201.187 107.598 200.724 107.044 200.495 106.301C199.491 103.059 204.693 84.9378 205.928 80.6397C200.05 83.4447 194.142 86.1856 188.204 88.8619C186.321 89.7044 180.998 91.8486 179.495 92.7039C171.603 95.9053 155.391 101.148 150.267 90.653C147.149 84.2669 152.574 71.8202 151.839 69.8C148.38 70.2423 150.31 78.0467 146.574 78.6314C145.66 78.7744 143.417 78.2442 142.763 78.6164C137.21 81.7755 115.186 109.886 111.841 93.5306C111.766 93.1639 111.656 90.09 111.609 89.3968L111.21 89.1473C108.542 89.9654 103.355 93.0358 100.538 94.3977C95.1441 97.0058 90.0015 98.5736 84.1628 99.8776C79.0996 101.008 77.1007 100.601 72.1963 99.7709C71.4898 99.6514 70.6963 99.3619 70.43 99.805L71.2762 100.558C71.1851 101.231 70.949 101.438 70.5391 101.979C71.911 106.045 69.186 110.769 71.0077 114.621L71.8037 114.863C72.6175 112.603 72.845 109.933 74.7244 108.977C74.6093 108.821 75.7141 112.43 76.0581 113.2C78.3872 118.447 78.7092 124.217 82.821 128.451C83.4805 129.13 81.7211 135.121 82.8068 135.61C87.0819 137.534 84.5475 140.407 85.8151 142.624L86.5407 141.707C88.5537 142.708 90.6894 146.34 92.0392 148.318C91.9757 148.502 90.8706 151.187 90.8452 150.867C91.1328 154.483 93.3252 156.955 92.5834 160.687C92.3833 161.694 93.7014 166.268 94.1061 167.44C95.0132 168.131 96.9293 168.592 96.9821 169.11C97.8585 177.691 102.024 166.988 105.346 173.411C108.163 178.858 109.426 182.791 111.342 188.428C111.414 188.644 112.638 188.259 112.8 188.197L113.581 188.769L108.76 202.951C101.694 193.326 95.5061 204.985 91.3045 209.455C87.7814 213.203 75.6664 219.786 72.036 212.91C67.0798 204.057 64.7446 204.559 58.8344 212.147C59.3094 208.231 63.0822 200.503 59.4822 198.638C56.3996 198.707 57.0449 203.936 55.5962 205.789C51.2034 211.409 40.713 215.375 33.7756 216.454C24.6933 217.868 32.3167 205.195 30.2157 201.767C28.1887 200.774 26.335 202.164 24.4137 203.118C17.0672 199.8 12.5879 206.728 7.42345 210.64C5.07046 212.422 2.51205 213.978 0 215.529L0 90.8888L0 0Z"/><path fill="#655067" d="M0 0L45.1236 0C44.5065 1.96834 39.8024 7.35117 38.4042 9.53128C21.2106 36.34 10.7737 67.8151 4.05691 98.785C3.44762 101.594 1.87069 107.315 1.66335 110.09L1.33434 109.951C1.31559 108.376 1.08785 107.41 0.97575 105.862C0.698044 102.026 1.67646 91.6268 0.59188 88.5201C0.136595 89.1434 0.107497 90.082 0 90.8888L0 0Z"/><path fill="#4E3C4F" d="M179.495 92.7039L178.909 91.6029C185.649 88.9447 202.235 81.0289 206.308 75.1262C209.157 70.9978 208.592 62.8271 212.514 59.9144C213.225 59.3867 214.063 59.1661 214.937 59.334C215.88 59.5153 217.234 60.2459 217.76 61.073C219.751 64.2021 212.314 83.3601 211.439 88.1265C215.111 84.0732 221.635 72.735 228.219 74.4416C225.791 78.706 223.611 83.1068 221.69 87.6222C221.611 87.6409 221.532 87.6576 221.454 87.6785C216.608 88.9754 209.35 103.909 205.406 107.184C204.462 107.967 203.066 108.543 201.884 107.948C201.187 107.598 200.724 107.044 200.495 106.301C199.491 103.059 204.693 84.9378 205.928 80.6397C200.05 83.4447 194.142 86.1856 188.204 88.8619C186.321 89.7044 180.998 91.8486 179.495 92.7039Z"/><path fill="#655067" d="M51.3804 0L54.7847 0C55.5205 9.97787 27.9649 57.3462 19.6979 65.1546L19.7124 65.049L19.4861 65.5618C20.2738 62.2226 21.5856 57.2156 22.8549 54.0436C29.4404 37.5869 35.2454 20.4672 46.2476 6.24007C47.9012 4.10181 49.7653 2.2051 51.3804 0Z"/><path fill="#655067" d="M136.244 74.2366C137.109 74.2132 137.776 74.2571 138.638 74.3171L138.973 74.7854C137.566 78.2265 128.965 86.3771 125.362 87.7624C124.382 88.3057 124.65 88.3483 123.696 88.2358L123.574 87.8037C125.844 82.1476 131.086 77.3114 136.244 74.2366Z"/><path fill="#655067" d="M116.952 180.644C119.442 177.499 123.182 163.996 128.768 164.352C133.42 168.582 120.326 189.75 117.591 194.226C117.376 196.167 117.048 197.422 119.141 198.073C120.712 196.95 119.558 195.161 120.094 194.248C121.41 194.817 121.766 196.29 123.055 197.471C124.544 198.836 129.142 199.757 129.856 200.958C129.108 201.701 128.39 202.587 127.377 202.788C126.443 201.689 127.276 199.999 125.073 199.772C124.662 199.73 123.42 199.77 123.234 200.223C121.795 203.726 117.077 219.18 119.059 221.917C121.276 221.923 122.372 219.123 123.243 217.401C124.969 218.3 126.833 217.727 127.768 220.22C127.796 222.418 125.368 224.275 125.013 225.982C124.157 230.102 128.697 232.074 130.299 236.466C131.989 237.064 132.856 235.191 134.124 236.035L134.247 236.345C133.308 237.593 132.7 236.575 132.379 237.575C134.432 239.837 137.012 236.729 136.687 242.785C136.663 243.235 138.667 244.165 139.033 244.333C140.634 246.742 144.323 252.04 144.525 254.752C142.013 255.785 136.133 253.667 133.226 256L0 256L0 217.41L0 215.529C2.51205 213.978 5.07046 212.422 7.42345 210.64C12.5879 206.728 17.0672 199.8 24.4137 203.118C26.335 202.164 28.1887 200.774 30.2157 201.767C32.3167 205.195 24.6933 217.868 33.7756 216.454C40.713 215.375 51.2034 211.409 55.5962 205.789C57.0449 203.936 56.3996 198.707 59.4822 198.638C63.0822 200.503 59.3094 208.231 58.8344 212.147C64.7446 204.559 67.0798 204.057 72.036 212.91C75.6664 219.786 87.7814 213.203 91.3045 209.455C95.5061 204.985 101.694 193.326 108.76 202.951L113.581 188.769C114.094 187.916 115.242 185.032 115.642 184.055C116.127 182.939 116.533 181.787 116.952 180.644Z"/><path fill="#6E5871" d="M116.952 180.644C119.442 177.499 123.182 163.996 128.768 164.352C133.42 168.582 120.326 189.75 117.591 194.226C115.924 196.501 111.493 202.48 110.388 204.992C105.15 216.908 99.2595 234.199 101.179 247.155C102.448 248.888 104.897 251.021 105.438 252.189L105.302 252.745C102.337 253.197 100.205 246.962 99.9459 244.42C98.6876 232.074 103.732 221.669 106.129 210.113C104.2 212.276 91.9324 227.168 90.7778 216.964C90.6682 215.995 91.2675 213.248 91.5345 212.209C87.1604 214.915 80.5604 218.863 75.2489 217.612C71.0011 216.612 68.7804 212.417 66.6239 209.002C64.6292 210.863 63.451 212.02 61.67 214.068C59.3824 216.698 56.6328 221.986 53.7644 223.507L53.0334 223.474C51.3609 221.596 54.192 212.536 54.8551 209.886C50.14 212.437 31.9862 222.499 26.9336 215.241C25.2175 212.776 27.3311 207.329 27.9265 204.262L27.6966 204.226C26.8124 205.486 26.2399 206.485 25.4859 207.817C19.3439 210.527 13.841 218.795 9.5353 218.756C6.97567 217.374 8.14678 215.275 6.70723 214.281C4.43927 214.982 2.34756 216.472 0 217.41L0 215.529C2.51205 213.978 5.07046 212.422 7.42345 210.64C12.5879 206.728 17.0672 199.8 24.4137 203.118C26.335 202.164 28.1887 200.774 30.2157 201.767C32.3167 205.195 24.6933 217.868 33.7756 216.454C40.713 215.375 51.2034 211.409 55.5962 205.789C57.0449 203.936 56.3996 198.707 59.4822 198.638C63.0822 200.503 59.3094 208.231 58.8344 212.147C64.7446 204.559 67.0798 204.057 72.036 212.91C75.6664 219.786 87.7814 213.203 91.3045 209.455C95.5061 204.985 101.694 193.326 108.76 202.951L113.581 188.769C114.094 187.916 115.242 185.032 115.642 184.055C116.127 182.939 116.533 181.787 116.952 180.644Z"/><path fill="#655067" d="M103.931 202.665C105.025 202.6 105.314 202.536 106.21 203.137C107.57 205.332 104.436 208.044 102.982 209.757C100.667 212.486 98.2148 215.167 95.8393 217.85C95.5106 218.195 95.0705 218.309 94.6193 218.478L94.034 218.189C91.7727 213.916 100.157 204.827 103.931 202.665Z"/><path fill="#655067" d="M127.536 166.501L127.76 166.758C128.321 169.379 118.182 187.144 116.381 190.656C114.348 187.78 124.024 169.579 127.536 166.501Z"/><path fill="#655067" d="M19.9899 206.415L20.3033 206.731L20.2911 207.395C18.4847 209.829 16.8001 211.524 14.3329 213.29C14.1329 213.077 14.1997 212.946 14.177 212.568C15.8812 210.011 17.5545 208.278 19.9899 206.415Z"/><defs><linearGradient id="gradient_2" gradientUnits="userSpaceOnUse" x1="290.59576" y1="27.173326" x2="248.81679" y2="164.47734"><stop offset="0" stop-color="#322133"/><stop offset="1" stop-color="#655166"/></linearGradient></defs><path fill="url(#gradient_2)" d="M340.271 0L344.683 0L348.861 0C347.355 6.68022 333.838 31.8631 329.975 38.8238C330.77 41.8766 331.519 41.5065 334.344 42.7218C330.78 48.5289 327.078 54.25 323.24 59.8802C321.326 62.6795 316.544 69.2517 315.122 72.0479C312.254 77.6886 309.905 85.7056 307.516 91.7581C306.557 94.1889 303.996 101.281 303.822 103.629L300.336 106.14C295.128 103.83 289.28 104.368 285.731 108.507C278.762 116.634 267.966 122.992 257.475 125.125C252.22 126.194 251.4 121.349 251.147 117.296C254.947 115.544 259.311 113.666 261.557 109.919C262.408 108.499 262.953 106.699 262.495 105.055C262.266 104.234 261.749 103.546 261.001 103.13C258.629 101.812 255.239 103.93 253.568 105.626C250.257 108.987 247.96 114.04 245.379 118.006C239.982 126.298 222.655 151.839 214.125 154.248C213.192 154.511 212.279 154.511 211.424 154.015C210.321 153.375 209.738 152.149 209.442 150.956C207.837 144.504 213.597 118.548 217.184 112.48C218.97 109.459 222.522 107.016 224.796 104.259C229.552 98.4917 233.51 92.0698 237.331 85.6626C247.877 98.9291 260.441 92.2823 271.715 84.5399C274.091 82.9086 278.762 79.8396 280.488 77.6646C283.578 73.7718 285.289 68.8645 289.529 65.7134C297.524 59.2771 305.564 58.4185 312.477 66.6792C315.886 56.1411 319.56 45.6906 323.497 35.3378C329.483 21.2591 332.156 13.7971 340.271 0Z"/><path fill="#4E3C4F" d="M340.271 0L344.683 0L348.861 0C347.355 6.68022 333.838 31.8631 329.975 38.8238C326.956 43.8854 324.472 49.3679 321.44 54.4579C322.983 48.5499 325.151 42.5989 327.095 36.7868C326.312 37.8776 325.747 38.8856 324.332 38.7043C323.637 37.82 323.627 36.4899 323.497 35.3378C329.483 21.2591 332.156 13.7971 340.271 0Z"/><path fill="#2E1F2E" d="M340.271 0L344.683 0C336.216 12.1853 332.286 22.9786 327.095 36.7868C326.312 37.8776 325.747 38.8856 324.332 38.7043C323.637 37.82 323.627 36.4899 323.497 35.3378C329.483 21.2591 332.156 13.7971 340.271 0Z"/><path fill="#4E3C4F" d="M302.902 66.9157C306.557 66.6618 307.315 68.1215 308.688 71.07C303.913 77.1978 292.651 90.745 287.148 96.0153L287.022 96.1028C285.978 96.8131 285.292 97.4805 284.023 97.521C281.15 96.216 283.676 90.0741 284.587 87.9588C288.297 79.3406 293.974 70.7003 302.902 66.9157Z"/><path fill="#FDFCFD" d="M405.968 105.042C408.629 97.5283 422.651 54.6972 431.205 56.8297C434.802 59.0605 431.327 67.4644 430.103 70.7223L429.105 73.091C425.25 81.248 420.834 89.1282 415.891 96.6751C413.416 100.516 410.245 104.212 408.142 108.242C402.781 118.519 392.871 151.099 396.624 161.776C397.111 163.163 397.825 164.157 399.183 164.773C400.447 165.346 401.739 165.431 402.297 166.899C402.531 167.514 402.44 167.714 402.256 168.338C398.055 170.214 394.807 161.912 394.591 159.049C393.522 144.864 398.102 127.634 402.97 114.394C399.808 118.348 392.549 127.104 387.328 127.934C381.768 128.818 383.046 120.999 383.706 117.664C370.415 126.181 361.679 129.616 353.238 113.861C346.553 118.235 343.593 124.1 338.811 130.127C338.194 130.904 336.949 131.723 335.91 131.817C333.206 129.743 337.456 117.49 338.253 114.026C327.958 119.704 294.688 136.748 303.71 108.79C303.823 108.437 303.944 108.087 304.073 107.74L303.511 107.549C301.34 109.5 303.447 112.908 299.958 112.658C298.421 112.343 298.299 112.715 297.09 113.697C292.55 117.383 287.445 124.402 281.503 125.385C278.443 125.891 278.453 120.934 278.514 119.137C272.232 122.475 255.214 132.456 249.485 122.738C249.004 121.922 248.524 120.637 248.122 119.738C245.457 123.44 209.896 174.799 206.918 148.655C205.261 134.109 215.827 101.716 221.69 87.6222C223.611 83.1068 225.791 78.706 228.219 74.4416C230.735 70.4745 237.101 59.577 241.006 59.3117C252.03 58.5628 238.795 82.9419 237.331 85.6626C233.51 92.0698 229.552 98.4917 224.796 104.259C222.522 107.016 218.97 109.459 217.184 112.48C213.597 118.548 207.837 144.504 209.442 150.956C209.738 152.149 210.321 153.375 211.424 154.015C212.279 154.511 213.192 154.511 214.125 154.248C222.655 151.839 239.982 126.298 245.379 118.006C247.96 114.04 250.257 108.987 253.568 105.626C255.239 103.93 258.629 101.812 261.001 103.13C261.749 103.546 262.266 104.234 262.495 105.055C262.953 106.699 262.408 108.499 261.557 109.919C259.311 113.666 254.947 115.544 251.147 117.296C251.4 121.349 252.22 126.194 257.475 125.125C267.966 122.992 278.762 116.634 285.731 108.507C289.28 104.368 295.128 103.83 300.336 106.14L303.822 103.629C305.539 102.927 305.893 102.606 307.455 103.557C309.966 107.505 302.568 119.43 306.822 121.767C314.362 125.908 333.688 115.506 339.148 109.679C340.917 107.791 339.461 100.759 344.15 100.261C348.715 102.094 343.165 114.564 341.816 118.361C343.353 116.227 345.458 113.889 347.398 112.118C354.76 105.458 356.055 113.529 359.775 118.271C365.298 124.765 370.837 121.472 376.67 118.645C384.985 114.615 386.319 109.805 392.191 103.936C396.333 99.7964 401.994 99.9769 405.968 105.042Z"/><path fill="#4E3C4F" d="M400.589 105.097C402.301 105.353 403.299 106.237 403.364 107.926C402.089 110.432 391.7 122.218 389.384 124.302C388.657 124.679 388.562 124.718 387.746 124.701L387.281 124.165C387.114 123.303 387.15 122.413 387.414 121.575C389.558 114.775 393.798 107.871 400.589 105.097Z"/><path fill="#655067" d="M231.27 75.4532C232.994 72.4057 237.92 63.6772 241.002 62.6001L241.717 62.7787C243.373 65.6413 236.751 77.3733 235.128 80.3198L232.586 84.9076C230.605 83.6268 231.102 81.8329 228.727 80.6488L231.27 75.4532Z"/><path fill="#4E3C4F" d="M231.27 75.4532C233.269 77.0305 233.999 78.0105 235.128 80.3198L232.586 84.9076C230.605 83.6268 231.102 81.8329 228.727 80.6488L231.27 75.4532Z"/><path fill="#4E3C4F" d="M429.221 60.291C429.755 60.4884 429.568 60.3558 429.902 60.8685C427.039 70.6887 417.912 85.5516 413.033 95.1564L412.851 95.3005L412.721 94.7403C415.86 84.4807 421.498 67.4839 429.221 60.291Z"/><path fill="#655067" d="M219.074 105.402C222.383 97.5974 225.247 88.9064 228.727 80.6488C231.102 81.8329 230.605 83.6268 232.586 84.9076C228.556 92.0401 224.041 98.8877 219.074 105.402Z"/><path fill="#655067" d="M294.476 109.778L295.297 109.876L295.555 110.255C294.561 112.731 289.501 117.279 287.192 118.746L286.75 118.827L286.298 118.494C286.89 115.653 291.812 111.082 294.476 109.778Z"/><path fill="#4E3C4F" d="M698.15 213.521L698.158 90.3657C698.156 79.7996 698.018 65.9145 698.283 55.1446C698.566 54.7117 698.805 54.3457 699 54.0465L699 256L697.747 256C698.233 252.972 698.076 246.267 698.081 242.893L697.989 217.495C687.797 217.512 677.602 217.4 667.963 214.016C666.882 224.45 664.351 239.57 653.804 244.938C650.097 246.675 645.977 245.455 644.646 241.418C642.137 233.804 645.889 225.263 648.943 218.444C637.321 220.902 617.114 220.394 606.143 214.81C603.913 213.675 599.027 207.825 597.118 209.211C587.439 216.239 580.135 234.512 575.337 244.865C572.73 245.185 571.124 244.992 568.584 244.497C571.205 231.706 574.239 219.08 577.328 206.395C578.313 202.583 579.68 199.685 584.279 200.974C588.899 202.27 584.335 210.364 583.325 213.558C583.638 213.018 583.959 212.482 584.285 211.95C586.561 208.253 590.799 203.626 595.186 202.69C602.074 201.221 603.475 207.847 608.509 211.284C617.237 217.243 640.528 217.603 650.259 215.495C651.233 214.71 658.581 206.699 658.538 206.143C658.057 200.19 663.145 200.996 665.42 205.195C665.971 206.21 668.749 209.768 669.73 210.351C676.596 214.431 690.753 213.501 698.15 213.521Z"/><path fill="#2E1F2E" d="M661.412 209.875L661.848 210.589C662.166 216.596 657.065 233.989 652.928 238.97C651.674 240.479 651.08 240.329 649.417 240.466C645.566 232.317 655.107 215.605 661.412 209.875Z"/><path fill="#6E5871" d="M123.243 217.401C122.372 219.123 121.276 221.923 119.059 221.917C117.077 219.18 121.795 203.726 123.234 200.223C123.42 199.77 124.662 199.73 125.073 199.772C127.276 199.999 126.443 201.689 127.377 202.788C128.39 202.587 129.108 201.701 129.856 200.958C134.183 199.215 135.938 204.054 138.96 205.476C144.333 208.005 153.727 208.276 159.438 206.83C161.556 204.256 162.81 202.407 164.643 199.619C168.259 204.159 168.871 204.96 174.58 206.012C178.539 206.741 186.979 205.365 189.127 205.945L189.098 206.39C184.51 209.151 173.034 207.356 167.718 206.558C167.337 211.564 166.42 216.983 162.576 220.575C161.047 222.004 158.074 222.736 156.727 220.79C154.642 217.78 156.716 211.516 158.262 208.695C147.895 209.528 140.537 209.96 132.237 203.192C128.117 207.53 125.921 212.132 123.243 217.401Z"/><path fill="#655067" d="M164.272 204.624L165.01 204.929C165.666 207.415 161.52 217.835 159.34 219.843C154.973 217.473 162.306 206.88 164.272 204.624Z"/><path fill="#2E1F2E" d="M348.861 0L353.624 0C351.056 14.3016 341.706 30.1879 334.344 42.7218C331.519 41.5065 330.77 41.8766 329.975 38.8238C333.838 31.8631 347.355 6.68022 348.861 0Z"/><path fill="#2E1F2E" d="M430.103 70.7223C432.917 71.2467 435.014 72.3375 438.132 72.8505C446.34 74.2008 455.674 74.2003 463.885 72.9227C466.316 72.5445 469.877 71.2894 471.552 73.2344C471.91 74.5553 471.932 74.0686 471.626 75.3505C467.817 79.3626 433.041 78.2509 429.105 73.091L430.103 70.7223Z"/><path fill="#2E1F2E" d="M699 21.3477C696.504 23.0916 690.718 37.6543 689.362 38.3238C689.445 35.9708 696.78 18.2786 698.002 17.6038C698.338 17.9424 698.41 17.9453 698.867 18.1305L699 18.1831L699 21.3477Z"/><path fill="#655067" d="M115.642 184.055C115.362 182.822 114.703 180.973 115.08 179.996C115.804 180.301 116.162 180.598 116.952 180.644C116.533 181.787 116.127 182.939 115.642 184.055Z"/><path fill="#FDFCFD" d="M424.666 101.399C430.504 101.298 428.719 104.364 427.234 108.164C434.753 98.5012 436.403 102.497 443.334 108.517C446.825 111.548 463.942 112.047 468.611 110.841C471.009 110.221 473.906 103.976 476.095 102.225C478.137 102.302 480.389 106.995 484.493 108.85C487.953 110.415 506.483 108.492 506.868 108.675C507.46 109.407 507.472 109.527 507.49 110.463C507.345 110.731 506.982 111.527 506.628 111.56C498.414 112.331 488.266 112.556 480.373 110.007C480.226 113.075 479.854 114.944 479.259 117.902C478.813 119.485 478.263 121.036 477.611 122.546C471.878 135.551 459.205 131.086 468.311 112.826C464.511 113.335 460.681 113.588 456.847 113.584C447.964 113.5 442.262 112.451 436.081 106.158C428.942 111.05 425.959 121.799 421.795 128.935C421.089 130.144 418.335 129.715 417.341 128.89C417.12 127.188 419.012 120.417 419.6 118.582C420.826 114.749 421.894 103.717 424.666 101.399Z"/><path fill="#4E3C4F" d="M476.384 107.431C477.007 111.084 473.05 125.96 468.869 126.868C466.184 121.262 472.23 111.165 476.384 107.431Z"/><path fill="#2E1F2E" d="M587.11 135.44C588.559 135.541 588.338 135.302 589.269 136.091C589.98 139.94 575.291 167.349 572.591 172.576C569.49 178.58 564.479 186.674 561.037 192.639C560.952 192.893 560.783 192.996 560.566 193.142L560.512 193.426L560.352 193.213C564.441 179.133 575.174 143.706 587.11 135.44Z"/><path fill="#2E1F2E" d="M572.781 15.7429L573.438 15.9069C573.32 25.1317 563.283 36.7122 559.218 44.8085C558.651 44.4513 558.601 44.3511 558.169 43.8254C558.326 38.1539 567.529 18.4007 572.781 15.7429Z"/><path fill="#FDFCFD" d="M277.477 144.683C283.593 144.73 288.898 146.266 285.098 153.539C282.774 155.362 280.303 155.078 277.486 155.04L277.477 144.683Z"/><path fill="#4E3C4F" d="M278.82 145.998C283.828 145.894 286.379 147.738 284.026 152.72C282.498 153.667 280.693 154.441 279.209 153.235C278.512 151.494 278.802 148.091 278.82 145.998Z"/><path fill="#4E3C4F" d="M375.588 214.145L376.966 214.272L377.042 214.958C375.306 219.125 367.755 225.955 363.673 228.161C363.095 228.18 362.995 228.225 362.514 227.948C363.151 223.092 371.067 216.074 375.588 214.145Z"/><path fill="#FDFCFD" d="M480.406 178.018C481.879 177.473 483.532 177.774 484.718 178.802C485.905 179.831 486.437 181.424 486.107 182.959C485.777 184.494 484.637 185.728 483.132 186.178C480.906 186.843 478.554 185.622 477.818 183.418C477.081 181.214 478.227 178.824 480.406 178.018Z"/><path fill="#4E3C4F" d="M480.924 179.053C482.011 178.698 483.205 178.958 484.046 179.733C484.887 180.509 485.243 181.678 484.977 182.791C484.711 183.903 483.865 184.785 482.764 185.096C481.109 185.564 479.384 184.622 478.883 182.977C478.382 181.331 479.289 179.587 480.924 179.053Z"/><path fill="#2E1F2E" d="M680.385 45.81L681.611 45.9484C682.5 46.5952 682.271 46.2447 682.525 47.2401C681.836 50.0194 675.578 56.2024 673.319 58.4542C672.784 58.9503 673.06 58.8215 672.195 58.8469C671.486 56.9361 673.345 53.4845 674.319 51.8173C675.949 49.0266 677.68 47.4877 680.385 45.81Z"/><path fill="#FDFCFD" d="M411.471 144.723C413.624 144.657 415.28 144.515 417.198 145.633C418.768 147.997 416.127 149.07 416.306 151.387C416.331 151.712 417.91 153.705 417.869 154.991C416.982 155.053 417.246 155.037 416.368 154.445C415.623 153.1 414.85 151.465 413.744 150.438L413.328 150.604C412.966 151.98 412.632 153.363 412.325 154.752L411.586 154.836C411.026 154.072 411.444 146.277 411.471 144.723Z"/><path fill="#4E3C4F" d="M412.512 146.016C413.663 146.008 414.893 145.873 415.876 146.429C416.551 147.581 416.373 147.163 416.271 148.693C415.286 148.922 413.958 149.322 413.094 148.861C412.386 148.081 412.517 147.083 412.512 146.016Z"/><path fill="#FDFCFD" d="M480.483 144.216C481.879 145.492 484.542 152.675 485.286 154.766L484.778 154.682C483.595 153.814 483.381 153.598 482.537 152.397L481.179 152.162C478.068 152.159 478.903 152.65 476.111 154.756L475.705 154.679C475.86 153.745 479.864 145.247 480.483 144.216Z"/><path fill="#FDFCFD" d="M375.428 144.268C376.855 145.69 379.189 152.179 379.829 154.304C379.19 154.58 377.656 152.572 376.972 152.244C376.958 152.237 375.074 152.174 374.946 152.169C371.678 152.586 372.748 154.462 370.88 154.736C370.867 153.239 374.361 145.733 375.428 144.268Z"/><path fill="#FDFCFD" d="M317.777 177.919C323.669 177.897 323.289 180.237 322.792 185.648C321 186.09 319.559 186.026 317.72 186.036L317.777 177.919Z"/><path fill="#FDFCFD" d="M459.678 177.947C462.272 177.845 463.562 177.488 464.86 179.938C464.66 181.183 464.321 181.195 463.341 182.212C463.243 183.434 464.089 184.027 464.802 185.532L464.527 185.946L463.468 185.743C462.918 184.764 462.29 183.399 461.392 182.959C460.989 184.307 460.864 184.775 460.134 186.013L459.652 186.016C459.174 184.616 459.21 179.349 459.678 177.947Z"/><path fill="#FDFCFD" d="M407.115 177.895L407.325 177.895C409.152 177.89 410.614 177.681 411.923 178.983C412.143 180.865 410.865 181.405 411.005 182.995C411.036 183.351 412.124 184.875 412.08 186.015C411.402 186.037 411.626 186.04 410.946 185.484L408.433 181.725C408.17 184.039 407.863 185.8 407.406 188.089C406.804 185.515 406.663 180.471 407.115 177.895Z"/><path fill="#FDFCFD" d="M303.433 144.723C304.953 144.716 308.347 144.613 309.679 144.886L309.833 145.367C308.089 146.671 305.879 145.514 304.456 146.56C304.456 149.01 307.231 149.307 309.21 149.858C307.703 150.323 306.221 150.237 304.644 150.242C304.345 157.394 307.323 152.022 309.993 154.453L309.811 154.85C308.33 155.151 305.036 155.009 303.385 154.987C303.313 151.694 303.412 148.044 303.433 144.723Z"/><path fill="#FDFCFD" d="M300.673 177.649C301.872 178.649 304.759 184.515 304.18 185.887C303.16 184.858 302.486 183.939 300.971 183.788C298.449 184.104 298.291 185.425 296.261 187.536C297.361 184.781 299.237 180.083 300.673 177.649Z"/><path fill="#FDFCFD" d="M452.881 144.321C454.655 145.191 456.305 151.159 457.005 153.203C457.673 151.163 459.272 146.141 460.622 144.778L461.081 145.059L460.895 146.18C459.842 149.357 458.456 152.937 456.978 155.927C455.772 153.614 452.852 146.809 452.881 144.321Z"/><path fill="#4E3C4F" d="M317.578 208.329L318.56 209.064L318.62 209.873C317.602 212.501 313.848 215.708 311.624 217.52L311.007 217.427L310.636 216.921C310.842 214.847 315.903 209.88 317.578 208.329Z"/><path fill="#FDFCFD" d="M373.603 178C374.855 177.924 376.906 177.766 377.999 178.359C376.837 179.354 375.169 178.709 374.14 179.843C374.665 180.947 376.723 181.594 377.963 182.11L377.892 182.451C377.225 182.671 374.71 182.974 373.895 183.087L374.135 184.189C374.799 184.832 376.823 185.171 378.138 185.676C376.444 186.098 374.81 186.02 373.064 186.026C373.011 184.021 372.593 179.371 373.603 178Z"/><path fill="#FDFCFD" d="M336.663 177.953C338.435 177.879 340.34 177.627 341.845 178.633C341.345 179.072 338.772 179.191 337.568 179.515C337.33 180.697 341.323 181.283 341.784 182.402C340.805 182.933 339.78 182.818 338.668 182.802L338.097 183.01C336.956 185.764 340.409 184.354 341.853 185.736C340.135 186.066 338.424 186.017 336.676 186.029L336.663 177.953Z"/><path fill="#FDFCFD" d="M425.681 177.98C427.317 177.918 428.715 177.763 430.286 178.243C429.801 178.868 428.006 179.212 427.066 179.496L426.876 180.178C427.738 181.301 429.751 181.298 430.446 182.372C429.18 182.986 428.194 182.79 426.804 182.683C426.818 183.401 426.908 183.96 427.009 184.663C428.224 185.336 429.052 184.715 430.795 185.152L430.88 185.64C430.136 186.213 426.808 186.034 425.657 186.036L425.681 177.98Z"/><path fill="#FDFCFD" d="M280.206 177.83C281.862 177.743 282.972 177.536 284.201 178.823L284.085 179.16C280.945 179.275 276.679 179.101 279.117 183.865C279.605 184.819 280.837 185.072 281.807 185.305C282.742 184.837 282.996 184.681 284.03 184.549L284.262 184.99C282.143 187.96 276.05 185.795 277.541 181.129C278.189 179.103 278.612 178.973 280.206 177.83Z"/><path fill="#CCC1CF" d="M349.454 144.466L350.277 144.815C351.239 146.047 350.774 152.1 350.717 153.906C352.502 153.849 354.488 153.382 355.524 154.915C353.613 155.088 351.33 155.037 349.381 155.042C349.202 151.979 349.044 147.472 349.454 144.466Z"/><path fill="#FDFCFD" d="M327.186 144.458L327.761 144.713C328.756 146.034 328.342 152.01 328.308 153.963C329.921 153.894 332.22 153.446 333.14 154.815C331.119 155.102 329.033 155.044 326.989 155.039C326.908 152.132 326.827 147.221 327.186 144.458Z"/><path fill="#CCC1CF" d="M355.676 177.713C358.255 178.674 355.628 182.809 357.237 184.889C357.61 184.913 357.982 184.941 358.354 184.973C359.867 185.112 359.752 184.954 360.527 185.878C359.152 186.069 356.777 186.054 355.309 186.084C355.21 183.9 354.827 179.509 355.676 177.713Z"/><path fill="#FDFCFD" d="M435.167 144.459C436.034 144.831 436.179 144.941 436.235 145.965C436.406 149.047 436.446 152.457 436.052 155.511C434.102 153.968 434.906 146.864 435.167 144.459Z"/><path fill="#CCC1CF" d="M445.157 177.764L445.692 178.523C445.884 180.812 446.298 184.75 444.881 186.494C443.827 185.041 443.979 181.033 444.222 179.207C444.34 178.313 444.525 178.364 445.157 177.764Z"/><path fill="#2E1F2E" d="M608.699 48.8554L608.967 48.9496L609.076 49.6566C607.792 51.5119 605.53 53.7139 603.616 54.9228L603.514 54.9833L603.28 54.8778C604.575 52.264 606.347 50.5194 608.699 48.8554Z"/><path fill="#FDFCFD" d="M392.043 177.918C393.811 178.88 393.04 184.445 392.896 186.25C391.233 185.314 391.945 179.768 392.043 177.918Z"/></svg>